<?xml version="1.0" standalone="no"?>
<!DOCTYPE svg PUBLIC "-//W3C//DTD SVG 20010904//EN"
 "http://www.w3.org/TR/2001/REC-SVG-20010904/DTD/svg10.dtd">
<svg version="1.0" xmlns="http://www.w3.org/2000/svg"
 width="741.000000pt" height="337.000000pt" viewBox="0 0 741.000000 337.000000"
 preserveAspectRatio="xMidYMid meet">
<metadata>
Created by potrace 1.16, written by Peter Selinger 2001-2019
</metadata>
<g transform="translate(0.000000,337.000000) scale(0.100000,-0.100000)"
fill="#000000" stroke="none">
<path d="M2260 3126 l0 -33 110 -5 c179 -9 214 -41 230 -210 13 -127 12 -1845
0 -2039 -6 -86 -15 -180 -20 -210 -31 -163 -162 -313 -320 -365 -66 -22 -208
-25 -263 -6 -53 19 -97 59 -97 88 0 14 9 51 20 84 33 99 0 183 -85 216 -113
43 -214 -23 -223 -146 -6 -82 16 -136 79 -195 55 -52 122 -86 219 -112 88 -23
334 -23 438 1 312 70 502 262 564 570 6 32 13 454 17 1116 l6 1065 25 50 c35
71 74 87 212 93 l108 5 0 33 0 34 -510 0 -510 0 0 -34z"/>
<path d="M1198 2901 c-213 -124 -515 -349 -653 -486 -171 -168 -268 -357 -305
-588 -16 -95 -8 -288 15 -372 22 -80 85 -207 136 -275 89 -118 255 -224 430
-274 129 -37 219 -46 452 -46 304 0 434 24 625 117 79 38 108 59 180 132 99
100 143 168 184 283 93 264 41 593 -135 853 -84 123 -274 302 -491 460 -101
73 -352 235 -365 235 -3 0 -36 -18 -73 -39z m165 -92 c330 -207 637 -478 741
-654 100 -172 142 -334 133 -525 -8 -187 -66 -332 -180 -448 -48 -48 -55 -52
-99 -52 -39 0 -54 6 -80 29 -38 34 -39 43 -19 272 20 232 -17 596 -62 621 -14
7 -23 6 -34 -5 -13 -12 -12 -24 1 -91 51 -247 47 -604 -10 -776 -33 -99 -86
-177 -147 -214 -39 -24 -64 -31 -130 -37 -101 -8 -123 4 -152 82 -19 52 -20
83 -23 706 -3 611 -4 653 -21 662 -46 25 -46 35 -51 -671 -5 -613 -7 -667 -24
-711 -26 -68 -43 -76 -148 -67 -125 11 -194 61 -252 183 -78 166 -94 506 -39
827 15 89 16 102 3 110 -8 5 -19 8 -25 7 -35 -11 -64 -180 -72 -417 -6 -190 3
-302 34 -456 12 -60 14 -90 7 -115 -13 -44 -36 -42 -112 10 -202 139 -306 344
-306 601 1 199 62 391 179 555 61 85 211 227 356 335 150 113 417 290 436 290
7 0 50 -23 96 -51z"/>
<path d="M3277 2867 c-8 -53 12 -72 90 -86 81 -14 129 -40 143 -77 7 -17 9
-325 8 -856 l-3 -830 -29 -23 c-17 -13 -62 -31 -100 -40 -114 -26 -118 -29
-114 -76 l3 -42 105 4 c152 6 1147 5 1268 -1 82 -4 104 -2 112 9 4 8 14 53 20
100 11 82 55 317 66 353 6 20 -48 52 -74 44 -10 -4 -37 -48 -62 -103 -61 -134
-136 -212 -234 -242 -61 -19 -92 -21 -310 -21 -134 0 -257 5 -278 10 -20 6
-46 22 -58 37 -20 26 -20 31 -18 844 3 801 3 817 23 839 29 33 89 56 177 70
43 7 83 19 89 26 5 7 9 30 7 51 l-3 38 -120 -5 c-161 -7 -583 -4 -649 4 l-54
6 -5 -33z"/>
<path d="M5024 2886 c-9 -25 0 -79 16 -87 8 -4 46 -15 84 -25 37 -9 80 -27 95
-40 l26 -22 3 -830 c1 -520 -1 -839 -7 -855 -14 -37 -51 -57 -138 -78 -42 -10
-80 -22 -85 -27 -5 -5 -8 -27 -6 -48 l3 -38 100 4 c129 6 443 6 565 0 93 -4
95 -4 98 19 8 56 -3 68 -84 87 -89 21 -131 44 -144 80 -6 15 -10 184 -10 410
l0 384 490 0 490 0 0 -400 0 -401 -23 -23 c-13 -13 -51 -30 -92 -40 -116 -29
-117 -30 -113 -78 l3 -42 95 4 c116 6 431 6 560 1 l95 -4 3 41 c4 48 3 49
-113 78 -41 10 -79 27 -92 40 l-23 23 0 835 c0 594 3 842 11 860 14 31 57 52
138 71 72 16 82 25 79 75 -3 30 -6 35 -28 33 -162 -10 -464 -13 -575 -5 -150
9 -155 8 -155 -38 0 -40 12 -49 96 -70 60 -15 85 -27 107 -50 l27 -30 0 -370
0 -370 -490 0 -490 0 0 363 c0 267 4 368 13 386 17 34 63 59 133 73 77 14 86
22 82 72 l-3 41 -105 -5 c-135 -6 -577 -3 -607 5 -15 3 -25 1 -29 -9z"/>
<path d="M2952 618 l3 -163 88 -3 c82 -3 87 -2 87 18 0 18 -6 20 -70 20 l-71
0 3 58 3 57 63 3 c46 2 62 7 62 17 0 12 -15 15 -65 15 l-65 0 0 50 0 49 68 3
c52 2 67 6 67 18 0 12 -18 16 -88 18 l-87 3 2 -163z"/>
<path d="M3235 768 c-31 -18 -44 -40 -45 -74 0 -35 24 -61 87 -93 51 -25 68
-52 53 -81 -16 -29 -51 -40 -96 -30 -27 6 -41 5 -46 -3 -12 -19 8 -30 64 -34
70 -5 114 20 124 72 8 45 -13 78 -69 106 -23 12 -50 28 -59 37 -45 39 2 89 73
77 36 -6 40 -5 37 11 -2 15 -14 20 -53 21 -28 2 -59 -2 -70 -9z"/>
<path d="M3485 769 c-31 -18 -45 -40 -45 -73 0 -44 12 -57 77 -91 54 -28 58
-33 58 -65 0 -46 -36 -66 -92 -51 -28 8 -39 7 -45 -2 -11 -18 6 -29 56 -34 58
-7 102 11 122 49 30 58 3 103 -85 142 -53 24 -65 60 -30 89 18 15 32 17 67 12
39 -6 43 -4 40 12 -2 14 -14 19 -53 20 -28 2 -59 -2 -70 -8z"/>
<path d="M3700 615 l0 -166 87 3 c74 3 88 6 91 21 3 15 -5 17 -67 17 l-71 0 0
60 0 60 60 0 c47 0 60 3 60 15 0 12 -13 15 -60 15 l-60 0 0 50 0 50 65 0 c58
0 65 2 65 20 0 18 -7 20 -85 20 l-85 0 0 -165z"/>
<path d="M3944 767 c-2 -7 -3 -80 -2 -162 3 -132 5 -150 20 -153 16 -3 18 10
20 129 l3 133 47 -80 c84 -142 112 -179 133 -179 19 0 20 7 20 160 0 144 -2
160 -17 163 -16 3 -18 -8 -18 -129 l0 -132 -63 104 c-35 57 -71 116 -81 132
-19 28 -53 36 -62 14z"/>
<path d="M4235 770 c-12 -19 6 -30 50 -30 l44 0 3 -142 c3 -127 5 -143 21
-146 16 -3 17 9 17 142 l0 146 50 0 c43 0 50 3 50 20 0 19 -7 20 -114 20 -66
0 -117 -4 -121 -10z"/>
<path d="M4682 628 c-29 -84 -52 -159 -52 -166 0 -29 35 -4 50 35 22 59 30 65
85 61 48 -3 48 -3 68 -55 14 -38 25 -53 38 -53 11 0 19 6 18 13 0 6 -24 80
-53 162 -47 135 -54 150 -77 153 -23 3 -27 -5 -77 -150z"/>
<path d="M4955 768 c-3 -8 -4 -81 -3 -163 l3 -150 88 -3 c82 -3 87 -2 87 18 0
18 -6 20 -65 20 l-64 0 -3 142 c-3 127 -5 143 -21 146 -9 2 -19 -3 -22 -10z"/>
<path d="M5325 755 c-26 -25 -33 -76 -15 -105 5 -8 35 -28 67 -45 50 -26 58
-34 61 -61 5 -49 -33 -65 -122 -52 -30 5 -31 -21 -1 -32 81 -31 165 9 165 79
0 49 -16 68 -81 100 -42 21 -55 33 -57 53 -4 37 34 62 81 53 23 -5 37 -3 42 5
11 18 -15 30 -68 30 -38 0 -53 -5 -72 -25z"/>
<path d="M5554 767 c-2 -7 -3 -80 -2 -162 l3 -150 90 0 c77 0 90 2 93 18 3 15
-5 17 -67 17 l-71 0 0 60 0 60 60 0 c47 0 60 3 60 15 0 12 -13 15 -60 15 l-60
0 0 50 0 50 65 0 c58 0 65 2 65 20 0 18 -7 20 -85 20 -61 0 -87 -4 -91 -13z"/>
<path d="M5805 768 c-3 -8 -4 -81 -3 -163 3 -133 5 -150 21 -153 15 -3 17 5
17 67 l0 71 39 0 c47 0 55 -9 73 -80 12 -45 19 -56 37 -58 18 -3 22 0 18 15
-3 10 -11 38 -17 63 -7 25 -18 52 -27 61 -13 15 -11 20 11 42 33 33 34 77 2
114 -21 24 -32 28 -95 31 -54 3 -72 1 -76 -10z"/>
<path d="M6050 768 c0 -7 23 -82 51 -165 42 -128 54 -153 70 -153 14 0 25 12
35 37 17 41 104 283 104 290 0 2 -10 3 -22 1 -18 -3 -29 -24 -67 -137 l-46
-133 -43 136 c-36 114 -46 136 -62 136 -11 0 -20 -6 -20 -12z"/>
<path d="M6552 763 c-52 -26 -76 -68 -80 -143 -3 -55 0 -70 20 -100 39 -58
119 -84 196 -64 25 7 26 41 1 36 -36 -9 -102 -2 -124 12 -38 25 -58 72 -52
123 9 85 68 130 153 117 35 -5 44 -3 44 9 0 8 -7 18 -16 21 -30 11 -109 6
-142 -11z"/>
<path d="M6774 767 c-2 -7 -3 -80 -2 -162 l3 -150 90 0 c77 0 90 2 93 18 3 15
-5 17 -68 17 l-71 0 3 58 3 57 58 3 c42 2 57 7 57 17 0 12 -14 15 -60 15 l-60
0 0 50 0 50 65 0 c58 0 65 2 65 20 0 18 -7 20 -85 20 -61 0 -87 -4 -91 -13z"/>
<path d="M7044 756 c-21 -17 -28 -33 -28 -59 0 -45 16 -63 81 -94 57 -27 73
-55 53 -92 -9 -18 -26 -25 -65 -24 -5 0 -25 3 -42 7 -29 7 -33 5 -33 -13 0
-15 9 -22 36 -27 87 -16 154 21 154 86 0 47 -14 64 -80 97 -48 24 -55 32 -58
61 -3 27 1 34 25 43 19 7 38 7 60 1 26 -8 33 -7 38 6 8 22 -12 32 -67 32 -35
0 -54 -6 -74 -24z"/>
</g>
</svg>
